<?xml version="1.0" encoding="utf-8"?>
<!-- Generator: Adobe Illustrator 22.0.1, SVG Export Plug-In . SVG Version: 6.00 Build 0)  -->
<svg version="1.1" id="Layer_1" xmlns="http://www.w3.org/2000/svg" xmlns:xlink="http://www.w3.org/1999/xlink" x="0px" y="0px"
	 width="79px" height="32px" viewBox="0 0 79 32" style="enable-background:new 0 0 79 32;" xml:space="preserve">
<style type="text/css">
	.st0{fill:#7699C6;}
</style>
<title>GSsignature_Blue</title>
<desc>Created with Sketch.</desc>
<g id="Layer_1_1_">
	<g>
		<path class="st0" d="M6.5,7.7h4.4v7.2c-1.5,0.3-2.6,0.5-3.9,0.5c-4.9,0-6.6-2.8-6.6-7.4c0-4.9,2.4-7.7,7.1-7.7
			c0.6,0,1.8,0,3.2,0.3v4.6h-1L9.2,3.5C8.6,1.8,8,0.9,6.9,0.9c-1.8,0-2.8,2.5-2.8,7c0,4.6,0.4,6.8,2.8,6.8c0.3,0,0.7,0,1.1-0.2V9.3
			l-1.4-1L6.5,7.7L6.5,7.7z M10.9,27.2c0,2.9-2,4.6-5.5,4.6c-1,0-2.4-0.2-3.7-0.4v-5.7h1L3.1,27c1,3.1,1.6,4.1,2.9,4.1
			c1.3,0,2.2-1.1,2.2-2.6c0-1.2-0.6-2.1-1.8-2.7l-2.1-1.2c-1.6-0.9-2.5-2.2-2.5-3.9c0-2.5,2.1-4,5.5-4c0.8,0,1.7,0.1,3.1,0.3v4.6h-1
			l-0.6-1.8c-0.6-1.9-1.2-2.6-2.3-2.6c-1.2,0-2,0.8-2,2c0,1.1,0.6,1.8,1.7,2.5l2.2,1.2C10,23.9,10.9,25.3,10.9,27.2z M20.3,30.5
			l0.4,0.6v0.3h-3.3l-0.2-1.2c-0.4,0.9-1.2,1.5-2.4,1.5c-1.7,0-2.8-1.1-2.8-2.8c0-1.7,1-2.8,3.9-4l1.2-0.5v-1.6c0-1.4-0.3-2-1.1-2
			c-0.6,0-1,0.4-1.6,1.9l-0.7,1.8h-1V21c1.2-0.4,2.5-0.6,3.6-0.6c2.4,0,3.7,1.2,3.7,3.3V30.5z M21.6,9.7c0,3.6-1.9,5.7-4.4,5.7
			s-4.4-2.1-4.4-5.7S14.6,4,17.1,4C19.6,4,21.6,6.1,21.6,9.7z M17.3,28.8v-3.7l-0.4,0.2c-1.2,0.5-1.8,1.7-1.8,3.3c0,1.2,0.3,2,1,2
			C16.9,30.5,17.3,29.9,17.3,28.8z M18.4,9.7c0-4.1-0.4-5.2-1.3-5.2s-1.3,1.1-1.3,5.2s0.4,5.2,1.3,5.2S18.4,13.8,18.4,9.7z
			 M29.1,28.8l0.4,0.2c-0.7,2-1.6,2.7-3.3,2.7c-2.8,0-4.3-2.1-4.3-5.7s1.8-5.7,4.7-5.7c0.8,0,1.8,0.1,2.7,0.5v3.6h-1L28,23.1
			c-0.5-1.8-0.8-2.3-1.4-2.3c-0.9,0-1.6,1.1-1.6,5.3c0,3.4,0.5,4.6,1.8,4.6C27.8,30.8,28.6,30.3,29.1,28.8z M26.8,15.1h-3.9v-0.3
			l0.4-0.7V2.2l-0.4-0.7V1.3L26.3,1v13.2l0.4,0.7V15.1z M32,15.4c-2.3,0-3.8-2.1-3.8-5.8C28.3,6,29.7,4,32,4c1.2,0,1.8,0.5,2.1,1.4
			V2.2l-0.4-0.7V1.3L37.1,1v13.2l0.4,0.7v0.3h-3l-0.2-1.6C33.9,14.9,33.3,15.4,32,15.4z M39.5,30.5l0.4,0.6v0.3h-3.9v-0.3l0.4-0.6
			v-7.7c0-0.9-0.3-1.5-0.9-1.5c-0.8,0-1.4,0.7-1.4,2v7.2l0.4,0.6v0.3h-3.9v-0.3l0.4-0.6V18.6l-0.4-0.7v-0.3l3.4-0.3v4.4
			c0.4-0.9,1.2-1.4,2.5-1.4c1.8,0,2.8,1.1,2.8,3.3C39.5,23.6,39.5,30.5,39.5,30.5z M31.4,9.6c0,3.9,0.4,5,1.3,5
			c1.2,0,1.4-1.7,1.4-5.1c0-3.3-0.2-4.9-1.4-4.9C31.8,4.7,31.4,5.9,31.4,9.6z M52.9,14.2l0.4,0.7v0.3h-3.9v-0.3l0.4-0.7V6.3
			C49.9,5.5,49.6,5,49,5c-0.7,0-1.4,0.7-1.4,1.9v7.2l0.4,0.7v0.3h-3.8v-0.3l0.4-0.7V6.3c0-0.8-0.3-1.2-0.9-1.2
			c-0.7,0-1.4,0.7-1.4,1.9v7.2l0.4,0.7v0.3h-3.9v-0.3l0.4-0.7V5.5L39.1,5V4.7l3.1-0.4h0.3l0.1,1.2c0.4-0.9,1.2-1.4,2.5-1.4
			c1.3,0,2.2,0.6,2.5,1.8c0.3-1.1,1.3-1.8,2.6-1.8c1.7,0,2.8,1.1,2.8,3.3V14.2z M48.9,28.4c0,1.9-1.2,3.4-4.1,3.4
			c-0.7,0-1.8-0.1-3.3-0.4v-4h0.9l0.3,0.9c0.7,2.2,1.4,3,2.4,3c1,0,1.6-0.7,1.6-1.8c0-0.9-0.5-1.5-1.5-2.1l-1.8-1
			c-1.2-0.6-1.8-1.6-1.8-2.9c0-1.9,1.5-3.1,4-3.1c0.7,0,1.7,0.1,2.7,0.3v3.1h-0.9l-0.5-1.1c-0.5-1.4-1-1.8-1.8-1.8
			c-0.9,0-1.4,0.5-1.4,1.4c0,0.7,0.4,1.2,1.5,1.8l1.8,1C48.3,25.8,48.9,26.8,48.9,28.4z M62.7,14.2l0.4,0.7v0.3h-3.3l-0.2-1.2
			c-0.4,0.9-1.2,1.5-2.4,1.5c-1.7,0-2.8-1.1-2.8-2.8c0-1.7,1-2.8,3.9-4L59.7,8V6.5c0-1.4-0.3-2-1.1-2c-0.7,0-1,0.4-1.6,1.9l-0.7,1.8
			h-1V4.6C56.6,4.2,57.9,4,59,4c2.4,0,3.7,1.2,3.7,3.3L62.7,14.2L62.7,14.2z M59.7,12.4V8.7l-0.4,0.2c-1.2,0.5-1.8,1.7-1.8,3.3
			c0,1.2,0.3,2,1,2C59.3,14.2,59.7,13.5,59.7,12.4z M73.7,14.8v0.3h-3.9v-0.3l0.4-0.7V6.5c0-0.9-0.3-1.5-0.9-1.5C68.6,5,68,5.7,68,7
			v7.2l0.4,0.7v0.3h-3.9v-0.3l0.4-0.7V5.5L64.6,5V4.7l3.1-0.4H68L68,5.5c0.4-0.9,1.2-1.4,2.5-1.4c1.8,0,2.8,1.1,2.8,3.3v6.9
			L73.7,14.8z"/>
	</g>
</g>
<g id="Layer_2_1_">
</g>
</svg>
