<?xml version="1.0" standalone="no"?>
<!DOCTYPE svg PUBLIC "-//W3C//DTD SVG 20010904//EN"
 "http://www.w3.org/TR/2001/REC-SVG-20010904/DTD/svg10.dtd">
<svg version="1.0" xmlns="http://www.w3.org/2000/svg"
 width="259.000000pt" height="259.000000pt" viewBox="0 0 259.000000 259.000000"
 preserveAspectRatio="xMidYMid meet">
<metadata>
Created by potrace 1.11, written by Peter Selinger 2001-2013
</metadata>
<g transform="translate(0.000000,259.000000) scale(0.100000,-0.100000)"
fill="#000000" stroke="none">
<path d="M1642 2513 c-188 -3 -203 -5 -197 -21 3 -9 234 -479 513 -1044 l507
-1028 3 912 c2 800 0 918 -13 959 -21 61 -113 162 -177 195 -47 24 -59 25
-241 28 -106 2 -284 1 -395 -1z"/>
<path d="M262 2484 c-55 -27 -132 -105 -162 -163 -16 -34 -18 -97 -22 -986 -4
-805 -3 -957 9 -999 11 -35 31 -66 70 -108 50 -51 65 -61 135 -83 63 -20 100
-25 183 -25 97 0 106 2 119 23 29 45 796 1655 796 1671 0 9 -77 169 -170 356
l-170 340 -368 0 -368 0 -52 -26z"/>
<path d="M1280 774 c-168 -349 -307 -640 -308 -645 -4 -11 1232 -8 1243 3 7 7
-615 1278 -625 1278 -3 0 -143 -286 -310 -636z"/>
</g>
</svg>
